<svg xmlns="http://www.w3.org/2000/svg" width="20" height="21" viewBox="0 0 20 21">
  <path id="Caminho_36" data-name="Caminho 36" d="M487.489,482.78a9.088,9.088,0,0,1,5.969,6.759l.924,4.547a3.5,3.5,0,0,1-2.79,4.119,3.626,3.626,0,0,1-.7.068H478.008a3.528,3.528,0,0,1-3.556-3.5,3.444,3.444,0,0,1,.069-.687l.924-4.547a9.065,9.065,0,0,1,5.14-6.427.5.5,0,0,1-.1-.152l-2-5a.5.5,0,0,1,.622-.661l2.812.935,1.806-.907a.5.5,0,0,1,.447,0l1.827.908,2.791-.934a.5.5,0,0,1,.623.66l-1.928,4.82Zm-3.038.493a8.136,8.136,0,0,0-8.009,6.462l-.925,4.548a2.5,2.5,0,0,0,2.491,2.99h12.887a2.531,2.531,0,0,0,2.491-2.99l-.925-4.548a8.137,8.137,0,0,0-8.01-6.462Zm2.071-.768,1.566-3.914-1.964.657a.5.5,0,0,1-.381-.026l-1.789-.889-1.767.888a.5.5,0,0,1-.383.027l-1.987-.66,1.6,4a.492.492,0,0,1,.036.179,9.351,9.351,0,0,1,5.069-.262Zm-2.57,4.268v-.5a.5.5,0,1,1,1,0v.5H486.4a.5.5,0,0,1,.5.5v.378a.5.5,0,0,1-.985.122h-2.454a.5.5,0,0,0-.5.5v.5a.5.5,0,0,0,.5.5h1.986a1.5,1.5,0,0,1,1.5,1.5v.5a1.5,1.5,0,0,1-1.5,1.5h-.5v.491a.5.5,0,0,1-1,0v-.491h-1.5a.5.5,0,0,1-.5-.515l.014-.459a.5.5,0,0,1,1-.026h2.488a.5.5,0,0,0,.5-.5v-.5a.5.5,0,0,0-.5-.5h-1.986a1.5,1.5,0,0,1-1.5-1.5v-.5a1.5,1.5,0,0,1,1.5-1.5Z" transform="translate(-474.452 -477.273)" fill="#0ed0e0"/>
</svg>
